<svg width="1280" height="854" viewBox="0 0 1280 854" fill="none" xmlns="http://www.w3.org/2000/svg">
<g clip-path="url(#clip0_1_2)">
<rect width="1280" height="854" fill="#0A1922"/>
<g clip-path="url(#clip1_1_2)">
<path fill-rule="evenodd" clip-rule="evenodd" d="M939.606 186.352L995.737 218.505C999.022 220.387 1001.75 223.103 1003.65 226.379C1005.55 229.655 1006.55 233.374 1006.55 237.16V308.279C1006.55 311.858 1005.59 315.372 1003.77 318.453C1001.95 321.534 999.334 324.071 996.199 325.798L935.756 359.089C932.594 360.831 929.036 361.728 925.427 361.694C921.817 361.66 918.277 360.696 915.148 358.895L862.027 328.318C857.686 325.819 854.08 322.22 851.573 317.883C849.065 313.547 847.745 308.627 847.745 303.617V243.355C847.745 237.819 849.181 232.378 851.913 227.563C854.645 222.749 858.579 218.725 863.331 215.886L912.336 186.603C916.45 184.145 921.144 182.826 925.937 182.782C930.729 182.738 935.447 183.97 939.606 186.352Z" fill="#EBB951" stroke="#FCD804" stroke-width="13.5"/>
<path fill-rule="evenodd" clip-rule="evenodd" d="M746.035 185.41L804.69 218.8C807.837 220.591 810.453 223.183 812.273 226.313C814.092 229.443 815.051 232.999 815.05 236.62V306.37C815.051 310.379 813.98 314.315 811.95 317.771C809.919 321.228 807.002 324.079 803.5 326.03L744.84 358.7C741.505 360.557 737.745 361.515 733.928 361.479C730.111 361.443 726.369 360.415 723.07 358.495L670.16 327.695C665.926 325.231 662.413 321.699 659.972 317.453C657.53 313.206 656.245 308.393 656.245 303.495V244.035C656.245 238.142 657.776 232.351 660.689 227.228C663.602 222.106 667.796 217.828 672.86 214.815L721.89 185.64C725.536 183.471 729.692 182.306 733.934 182.266C738.176 182.226 742.353 183.31 746.04 185.41H746.035Z" fill="#33BA91" stroke="#00A88A" stroke-width="13.5"/>
<path fill-rule="evenodd" clip-rule="evenodd" d="M554.63 184.485L613.245 218.935C616.233 220.691 618.714 223.194 620.443 226.198C622.172 229.202 623.091 232.604 623.11 236.07L623.475 305.405C623.499 309.703 622.368 313.928 620.201 317.64C618.034 321.352 614.91 324.413 611.155 326.505L553.59 358.56C550.179 360.46 546.333 361.439 542.43 361.402C538.526 361.365 534.699 360.314 531.325 358.35L478.41 327.55C474.253 325.13 470.803 321.662 468.405 317.492C466.007 313.321 464.745 308.595 464.745 303.785V242.26C464.745 236.891 466.116 231.611 468.73 226.922C471.344 222.232 475.113 218.288 479.68 215.465L529.33 184.765C533.122 182.421 537.483 181.156 541.941 181.106C546.399 181.057 550.787 182.225 554.63 184.485Z" fill="#0594CB" stroke="#0083C0" stroke-width="13.5"/>
<path fill-rule="evenodd" clip-rule="evenodd" d="M364.905 186.065L422.11 219.335C425.438 221.271 428.201 224.046 430.12 227.384C432.04 230.721 433.05 234.505 433.05 238.355V306.57C433.049 310.826 431.917 315.006 429.769 318.68C427.621 322.355 424.534 325.392 420.825 327.48L364.05 359.45C360.347 361.535 356.165 362.621 351.915 362.6C347.665 362.58 343.493 361.455 339.81 359.335L287.525 329.24C283.489 326.917 280.136 323.571 277.804 319.539C275.473 315.507 274.245 310.932 274.245 306.275V241.54C274.245 236.851 275.443 232.239 277.727 228.143C280.012 224.048 283.305 220.604 287.295 218.14L338.695 186.41C342.623 183.985 347.136 182.673 351.752 182.612C356.368 182.551 360.914 183.745 364.905 186.065Z" fill="#FF4088" stroke="#C9177E" stroke-width="13.5"/>
<path fill-rule="evenodd" clip-rule="evenodd" d="M927.36 218.575C956.755 218.575 980.62 242.44 980.62 271.83C980.62 301.23 956.755 325.09 927.36 325.09C897.97 325.09 874.1 301.225 874.1 271.83C874.1 242.44 897.97 218.575 927.36 218.575ZM927.36 238.36C945.835 238.36 960.83 253.36 960.83 271.83C960.826 280.706 957.298 289.217 951.022 295.493C944.746 301.768 936.236 305.296 927.36 305.3C908.885 305.3 893.89 290.305 893.89 271.83C893.894 262.955 897.421 254.445 903.696 248.169C909.971 241.893 918.48 238.365 927.355 238.36H927.36ZM785.46 271.015C785.46 294.605 780.99 301.48 772.055 311.305C763.12 321.13 751.27 325.09 736.505 325.09C723.005 325.09 712.13 320.3 702.7 311.975C692.26 302.75 684.66 288.455 684.66 272.5C684.66 256.815 690.52 243.26 700.905 233.165C710.015 224.33 723.575 218.575 737.555 218.575C754.44 218.575 771.97 226.565 782.775 242.34L766.91 255.75C760.185 243.235 750.44 239.02 736.5 238.62C721.085 238.18 704.115 252.885 705.375 272.495C706.075 283.465 711.2 302.32 735.855 305.78C748.805 307.595 763.535 293.77 763.535 286.26H739.2V267.51H785.45V271L785.46 271.015ZM504.16 223.69H525.305V279.775C525.305 288.675 525.55 294.44 526.04 297.08C526.885 301.32 528.445 304.265 531.625 306.83C534.81 309.395 538.525 310.125 544.045 310.125C549.645 310.125 551.525 309.255 554.375 306.825C557.22 304.4 558.935 302.095 559.515 298.56C560.09 295.025 561.05 289.16 561.05 280.97V223.69H582.19V278.08C582.19 290.51 581.655 299.295 580.585 304.425C579.515 309.56 577.545 313.89 574.675 317.425C571.805 320.955 567.965 323.77 563.16 325.865C558.35 327.96 552.08 329.005 544.335 329.005C534.985 329.005 527.9 327.865 523.075 325.58C518.245 323.295 514.425 320.33 511.625 316.68C508.82 313.03 506.975 309.205 506.085 305.2C504.795 299.27 504.145 290.51 504.145 278.925V223.69H504.16ZM313.955 323.96V220.35H335.63V258.09H371.59V220.35H393.33V323.96H371.59V278.655H335.63V323.96H313.955Z" fill="white"/>
</g>
<path d="M441.319 466.536C441.319 466.248 441.319 465.936 441.319 465.6C441.367 465.264 441.391 464.928 441.391 464.592L440.455 437.376C439.159 437.472 437.911 437.616 436.711 437.808C435.511 438 434.383 438.096 433.327 438.096C432.271 438.096 431.479 437.904 430.951 437.52C430.471 437.136 430.231 436.464 430.231 435.504C430.231 433.632 430.639 432.408 431.455 431.832C432.319 431.208 433.231 430.896 434.191 430.896L448.159 430.752L453.415 430.392C454.231 430.392 454.879 430.728 455.359 431.4C455.839 432.072 456.079 432.888 456.079 433.848C456.079 434.184 455.983 434.592 455.791 435.072C455.647 435.552 455.455 436.008 455.215 436.44C454.975 436.872 454.687 437.256 454.351 437.592C454.015 437.88 453.679 438.024 453.343 438.024C452.863 438.024 452.335 437.784 451.759 437.304C451.231 436.824 450.703 436.584 450.175 436.584C450.031 436.584 449.767 436.584 449.383 436.584C448.999 436.584 448.567 436.608 448.087 436.656C447.607 436.656 447.103 436.68 446.575 436.728C446.047 436.728 445.591 436.752 445.207 436.8C445.351 441.312 445.471 445.128 445.567 448.248C445.711 451.368 445.807 453.96 445.855 456.024C445.951 458.04 445.999 459.624 445.999 460.776C446.047 461.88 446.071 462.696 446.071 463.224C446.119 463.752 446.143 464.088 446.143 464.232C446.143 464.328 446.143 464.4 446.143 464.448L446.719 468.336C446.671 469.488 446.527 470.304 446.287 470.784C446.047 471.216 445.399 471.432 444.343 471.432C442.999 471.432 442.159 471 441.823 470.136C441.487 469.272 441.319 468.072 441.319 466.536ZM471.084 471.936C468.636 471.936 466.668 471.336 465.18 470.136C463.74 468.888 462.636 467.376 461.868 465.6C461.1 463.824 460.596 461.952 460.356 459.984C460.164 457.968 460.068 456.192 460.068 454.656C460.068 453.168 460.116 451.536 460.212 449.76C460.356 447.984 460.596 446.328 460.932 444.792C461.268 443.208 461.7 441.888 462.228 440.832C462.804 439.776 463.5 439.248 464.316 439.248C464.988 439.248 465.444 439.464 465.684 439.896C465.972 440.328 466.116 440.904 466.116 441.624C466.116 442.344 466.02 443.184 465.828 444.144C465.684 445.056 465.516 446.04 465.324 447.096C465.132 448.152 464.94 449.256 464.748 450.408C464.604 451.56 464.532 452.712 464.532 453.864C464.532 454.776 464.604 455.904 464.748 457.248C464.892 458.592 465.18 459.888 465.612 461.136C466.044 462.336 466.668 463.392 467.484 464.304C468.3 465.168 469.404 465.6 470.796 465.6C471.9 465.6 472.884 465.384 473.748 464.952C474.66 464.472 475.476 463.896 476.195 463.224C476.916 462.504 477.54 461.712 478.068 460.848C478.644 459.984 479.196 459.144 479.724 458.328C479.82 456.792 479.892 455.496 479.94 454.44C480.036 453.336 480.108 452.28 480.156 451.272L480.3 442.056C480.3 440.952 480.588 440.208 481.164 439.824C481.74 439.44 482.244 439.248 482.676 439.248C483.108 439.248 483.54 439.464 483.972 439.896C484.404 440.328 484.62 440.976 484.62 441.84L484.188 468.192C484.14 469.44 483.948 470.28 483.612 470.712C483.276 471.144 482.748 471.36 482.028 471.36C481.596 471.36 481.212 471.288 480.876 471.144C480.54 471.048 480.276 470.832 480.084 470.496C479.892 470.112 479.748 469.584 479.652 468.912C479.556 468.192 479.508 467.256 479.508 466.104C479.508 465.72 479.508 465.288 479.508 464.808C479.508 464.328 479.532 463.824 479.58 463.296C479.292 464.544 478.836 465.696 478.212 466.752C477.636 467.808 476.94 468.72 476.124 469.488C475.356 470.256 474.54 470.856 473.676 471.288C472.812 471.72 471.948 471.936 471.084 471.936ZM504.611 471.36C502.883 471.36 501.491 470.952 500.435 470.136C499.379 469.272 498.563 468.144 497.987 466.752C497.411 465.36 497.003 463.776 496.763 462C496.571 460.224 496.451 458.4 496.403 456.528C496.355 454.608 496.307 452.736 496.259 450.912C496.259 449.088 496.187 447.432 496.043 445.944C495.515 445.944 494.963 445.968 494.387 446.016C493.811 446.064 493.187 446.088 492.515 446.088C492.323 446.088 492.059 446.016 491.723 445.872C491.435 445.728 491.123 445.536 490.787 445.296C490.499 445.008 490.235 444.672 489.995 444.288C489.803 443.904 489.707 443.448 489.707 442.92C489.707 441.96 489.995 441.144 490.571 440.472C491.147 439.8 491.795 439.464 492.515 439.464C493.139 439.464 493.763 439.488 494.387 439.536C495.011 439.536 495.683 439.56 496.403 439.608C496.403 438.984 496.427 438.024 496.475 436.728C496.571 435.432 496.715 434.16 496.907 432.912C497.147 431.664 497.483 430.56 497.915 429.6C498.347 428.64 498.923 428.16 499.643 428.16C500.027 428.16 500.435 428.448 500.867 429.024C501.347 429.552 501.587 430.272 501.587 431.184C501.587 433.344 501.515 434.952 501.371 436.008C501.275 437.064 501.179 437.856 501.083 438.384L500.867 439.68C502.595 439.68 504.323 439.656 506.051 439.608C507.827 439.56 509.603 439.536 511.379 439.536C511.715 439.536 512.003 439.656 512.243 439.896C512.483 440.136 512.675 440.448 512.819 440.832C512.963 441.168 513.059 441.552 513.107 441.984C513.203 442.368 513.251 442.728 513.251 443.064C513.251 444.072 512.987 444.84 512.459 445.368C511.979 445.848 511.499 446.088 511.019 446.088L500.795 445.944C500.795 446.376 500.771 446.952 500.723 447.672C500.723 448.344 500.723 449.088 500.723 449.904C500.723 450.72 500.699 451.584 500.651 452.496C500.651 453.36 500.651 454.2 500.651 455.016C500.651 456.312 500.699 457.56 500.795 458.76C500.891 459.912 501.059 460.944 501.299 461.856C501.587 462.768 501.971 463.512 502.451 464.088C502.931 464.616 503.579 464.88 504.395 464.88C504.971 464.88 505.547 464.76 506.123 464.52C506.747 464.28 507.299 464.016 507.779 463.728C508.307 463.392 508.739 463.104 509.075 462.864C509.411 462.624 509.627 462.504 509.723 462.504C510.299 462.504 510.683 462.696 510.875 463.08C511.067 463.416 511.163 463.92 511.163 464.592C511.163 465.312 510.923 466.08 510.443 466.896C510.011 467.664 509.459 468.384 508.787 469.056C508.115 469.728 507.395 470.28 506.627 470.712C505.859 471.144 505.187 471.36 504.611 471.36ZM517.293 455.736C517.293 452.712 517.701 450.144 518.517 448.032C519.333 445.92 520.413 444.216 521.757 442.92C523.101 441.576 524.613 440.616 526.293 440.04C527.973 439.416 529.677 439.104 531.405 439.104C535.389 439.104 538.485 440.616 540.693 443.64C542.901 446.616 544.005 450.648 544.005 455.736C544.005 458.136 543.621 460.32 542.853 462.288C542.085 464.208 541.077 465.888 539.829 467.328C538.581 468.72 537.141 469.8 535.509 470.568C533.925 471.336 532.293 471.72 530.613 471.72C528.789 471.72 527.061 471.24 525.429 470.28C523.845 469.272 522.429 468 521.181 466.464C519.981 464.928 519.021 463.224 518.301 461.352C517.629 459.432 517.293 457.56 517.293 455.736ZM530.253 465.6C531.453 465.6 532.605 465.384 533.709 464.952C534.861 464.472 535.869 463.8 536.733 462.936C537.645 462.072 538.365 461.016 538.893 459.768C539.421 458.52 539.685 457.08 539.685 455.448C539.685 453.96 539.493 452.592 539.109 451.344C538.725 450.096 538.197 449.04 537.525 448.176C536.853 447.264 536.061 446.568 535.149 446.088C534.237 445.608 533.253 445.368 532.197 445.368C530.949 445.368 529.677 445.584 528.381 446.016C527.133 446.4 526.005 447 524.997 447.816C523.989 448.584 523.149 449.592 522.477 450.84C521.853 452.04 521.541 453.432 521.541 455.016C521.541 456.312 521.781 457.608 522.261 458.904C522.741 460.152 523.389 461.28 524.205 462.288C525.021 463.296 525.957 464.112 527.013 464.736C528.069 465.312 529.149 465.6 530.253 465.6ZM551.012 467.112C551.012 466.008 551.012 465.12 551.012 464.448C551.06 463.728 551.084 463.128 551.084 462.648V460.632C551.084 460.008 551.084 459.408 551.084 458.832C551.084 458.208 551.108 457.32 551.156 456.168C551.252 455.016 551.348 453.432 551.444 451.416C551.588 449.4 551.804 446.616 552.092 443.064C552.188 442.008 552.428 441.168 552.812 440.544C553.196 439.872 553.796 439.536 554.612 439.536C554.996 439.536 555.404 439.8 555.836 440.328C556.268 440.808 556.484 441.768 556.484 443.208C556.484 443.448 556.484 443.712 556.484 444C556.484 444.24 556.46 444.528 556.412 444.864C556.748 443.76 557.276 442.824 557.996 442.056C558.764 441.288 559.604 440.664 560.516 440.184C561.428 439.704 562.364 439.368 563.324 439.176C564.284 438.936 565.172 438.816 565.988 438.816C566.612 438.816 567.332 438.888 568.148 439.032C569.012 439.128 569.804 439.368 570.524 439.752C571.292 440.088 571.916 440.616 572.396 441.336C572.924 442.008 573.188 442.92 573.188 444.072C573.188 445.128 572.996 445.992 572.612 446.664C572.228 447.336 571.676 447.672 570.956 447.672C570.38 447.672 569.996 447.552 569.804 447.312C569.66 447.024 569.468 446.712 569.228 446.376C569.036 446.04 568.724 445.752 568.292 445.512C567.86 445.224 567.092 445.08 565.988 445.08H565.268C561.812 445.08 559.388 446.04 557.996 447.96C556.604 449.832 555.908 452.64 555.908 456.384V457.608L556.268 467.76C556.268 468 556.22 468.312 556.124 468.696C556.028 469.032 555.884 469.392 555.692 469.776C555.5 470.16 555.236 470.496 554.9 470.784C554.612 471.024 554.228 471.144 553.748 471.144C552.644 471.144 551.9 470.832 551.516 470.208C551.18 469.536 551.012 468.504 551.012 467.112ZM582.051 432.192C581.715 432.192 581.331 432.144 580.899 432.048C580.467 431.952 580.059 431.784 579.675 431.544C579.291 431.256 578.955 430.896 578.667 430.464C578.427 429.984 578.307 429.36 578.307 428.592C578.307 428.064 578.403 427.536 578.595 427.008C578.835 426.48 579.123 426.024 579.459 425.64C579.795 425.208 580.155 424.872 580.539 424.632C580.971 424.344 581.379 424.2 581.763 424.2C582.531 424.2 583.275 424.464 583.995 424.992C584.763 425.52 585.147 426.552 585.147 428.088C585.147 430.824 584.115 432.192 582.051 432.192ZM578.019 468.408C577.971 468.168 577.899 467.592 577.803 466.68C577.755 465.72 577.731 464.016 577.731 461.568C577.731 460.608 577.731 459.384 577.731 457.896C577.731 456.36 577.755 454.776 577.803 453.144C577.899 451.464 578.019 449.784 578.163 448.104C578.355 446.424 578.571 444.912 578.811 443.568C579.099 442.224 579.459 441.144 579.891 440.328C580.323 439.464 580.851 439.032 581.475 439.032C582.243 439.032 582.699 439.368 582.843 440.04C583.035 440.712 583.131 441.504 583.131 442.416C583.035 444.432 582.891 446.712 582.699 449.256C582.507 451.752 582.411 454.2 582.411 456.6C582.411 458.376 582.555 460.344 582.843 462.504C583.131 464.616 583.275 466.512 583.275 468.192C583.275 469.344 583.035 470.232 582.555 470.856C582.075 471.432 581.571 471.72 581.043 471.72C580.227 471.72 579.579 471.48 579.099 471C578.619 470.52 578.259 469.656 578.019 468.408ZM588.215 458.616C588.215 456.264 588.623 453.936 589.439 451.632C590.255 449.28 591.383 447.192 592.823 445.368C594.263 443.496 595.919 442.008 597.791 440.904C599.711 439.752 601.751 439.176 603.911 439.176C605.543 439.176 607.079 439.56 608.519 440.328C610.007 441.096 611.279 442.104 612.335 443.352C613.391 444.552 614.231 445.944 614.855 447.528C615.479 449.064 615.791 450.6 615.791 452.136C615.791 452.952 615.743 453.744 615.647 454.512C615.551 455.232 615.431 455.976 615.287 456.744C615.191 457.464 615.095 458.232 614.999 459.048C614.903 459.864 614.855 460.776 614.855 461.784C614.855 463.128 615.047 464.064 615.431 464.592C615.815 465.12 616.367 465.384 617.087 465.384C617.519 465.384 617.927 465.144 618.311 464.664C618.743 464.184 619.127 463.896 619.463 463.8C620.711 463.8 621.335 464.712 621.335 466.536C621.335 467.112 621.215 467.688 620.975 468.264C620.735 468.84 620.399 469.368 619.967 469.848C619.535 470.28 619.031 470.664 618.455 471C617.879 471.288 617.255 471.432 616.583 471.432C615.911 471.432 615.239 471.24 614.567 470.856C613.943 470.472 613.367 469.992 612.839 469.416C612.311 468.792 611.879 468.096 611.543 467.328C611.207 466.512 611.039 465.672 611.039 464.808C609.599 466.632 607.967 468.24 606.143 469.632C604.367 471.024 602.399 471.72 600.239 471.72C598.847 471.72 597.431 471.384 595.991 470.712C594.599 470.04 593.327 469.128 592.175 467.976C591.023 466.776 590.063 465.384 589.295 463.8C588.575 462.168 588.215 460.44 588.215 458.616ZM592.679 458.4C592.679 459.456 592.919 460.416 593.399 461.28C593.927 462.144 594.599 462.888 595.415 463.512C596.279 464.088 597.215 464.544 598.223 464.88C599.279 465.216 600.311 465.384 601.319 465.384C603.431 465.384 605.111 464.928 606.359 464.016C607.607 463.056 608.591 461.88 609.311 460.488C610.031 459.048 610.535 457.512 610.823 455.88C611.111 454.2 611.375 452.616 611.615 451.128C611.615 450.6 611.351 450.024 610.823 449.4C610.343 448.728 609.743 448.128 609.023 447.6C608.303 447.024 607.511 446.544 606.647 446.16C605.831 445.776 605.087 445.584 604.415 445.584C602.639 445.584 601.031 445.968 599.591 446.736C598.151 447.504 596.903 448.512 595.847 449.76C594.839 450.96 594.047 452.328 593.471 453.864C592.943 455.4 592.679 456.912 592.679 458.4ZM626.141 426.72C626.141 425.376 626.333 424.224 626.717 423.264C627.101 422.304 627.725 421.824 628.589 421.824C629.213 421.824 629.693 422.184 630.029 422.904C630.365 423.576 630.533 424.248 630.533 424.92L630.101 456.672C630.101 457.68 630.101 458.688 630.101 459.696C630.149 460.704 630.245 461.616 630.389 462.432C630.533 463.2 630.725 463.824 630.965 464.304C631.253 464.784 631.613 465.024 632.045 465.024C632.333 465.024 632.573 464.952 632.765 464.808C633.005 464.616 633.221 464.424 633.413 464.232C633.605 464.04 633.797 463.872 633.989 463.728C634.229 463.536 634.493 463.44 634.781 463.44C635.453 463.44 635.909 463.776 636.149 464.448C636.437 465.12 636.581 465.816 636.581 466.536C636.581 467.256 636.413 467.904 636.077 468.48C635.741 469.008 635.333 469.488 634.853 469.92C634.421 470.304 633.941 470.616 633.413 470.856C632.885 471.048 632.405 471.144 631.973 471.144C629.717 471.144 628.109 470.448 627.149 469.056C626.189 467.616 625.733 465.6 625.781 463.008L626.141 426.72ZM659.247 464.304C659.247 464.016 659.295 463.632 659.391 463.152C659.535 462.624 659.703 462.12 659.895 461.64C660.087 461.16 660.327 460.752 660.615 460.416C660.903 460.032 661.191 459.84 661.479 459.84C661.623 459.84 661.887 460.224 662.271 460.992C662.751 462 663.207 462.768 663.639 463.296C664.071 463.824 664.503 464.232 664.935 464.52C665.415 464.76 665.943 464.904 666.519 464.952C667.143 465 667.863 465.024 668.679 465.024C669.687 465.024 670.719 464.88 671.775 464.592C672.831 464.256 673.791 463.848 674.655 463.368C675.519 462.84 676.239 462.288 676.815 461.712C677.391 461.088 677.679 460.512 677.679 459.984C677.679 459.072 677.175 458.376 676.167 457.896C675.207 457.416 673.983 456.984 672.495 456.6C671.055 456.216 669.471 455.808 667.743 455.376C666.015 454.944 664.407 454.368 662.919 453.648C661.479 452.88 660.255 451.872 659.247 450.624C658.287 449.376 657.807 447.72 657.807 445.656C657.807 443.304 658.239 441.192 659.103 439.32C660.015 437.448 661.143 435.888 662.487 434.64C663.879 433.392 665.415 432.432 667.095 431.76C668.823 431.088 670.527 430.752 672.207 430.752C673.359 430.752 674.391 430.968 675.303 431.4C676.215 431.784 677.007 432.336 677.679 433.056C678.351 433.728 678.855 434.52 679.191 435.432C679.575 436.344 679.767 437.28 679.767 438.24C679.767 438.864 679.743 439.536 679.695 440.256C679.647 440.928 679.551 441.552 679.407 442.128C679.263 442.704 679.023 443.184 678.687 443.568C678.399 443.952 677.991 444.144 677.463 444.144C676.791 444.144 676.383 443.832 676.239 443.208C676.143 442.584 676.095 441.864 676.095 441.048C676.095 439.512 675.663 438.48 674.799 437.952C673.935 437.376 672.783 437.088 671.343 437.088C670.527 437.088 669.591 437.304 668.535 437.736C667.527 438.168 666.543 438.768 665.583 439.536C664.671 440.256 663.879 441.096 663.207 442.056C662.583 443.016 662.271 444 662.271 445.008C662.271 446.064 662.751 446.88 663.711 447.456C664.719 447.984 665.967 448.44 667.455 448.824C668.943 449.16 670.527 449.52 672.207 449.904C673.935 450.24 675.543 450.792 677.031 451.56C678.519 452.28 679.743 453.264 680.703 454.512C681.711 455.76 682.215 457.464 682.215 459.624C682.215 461.784 681.639 463.632 680.487 465.168C679.383 466.656 678.063 467.88 676.527 468.84C674.991 469.752 673.407 470.424 671.775 470.856C670.191 471.24 668.919 471.432 667.959 471.432C667.239 471.432 666.375 471.36 665.367 471.216C664.359 471.072 663.399 470.76 662.487 470.28C661.623 469.8 660.855 469.08 660.183 468.12C659.559 467.16 659.247 465.888 659.247 464.304ZM692.612 460.416C692.996 461.664 693.644 462.648 694.556 463.368C695.468 464.088 696.476 464.616 697.58 464.952C698.684 465.288 699.788 465.504 700.892 465.6C701.996 465.648 702.956 465.672 703.772 465.672C704.588 465.672 705.404 465.552 706.22 465.312C707.036 465.072 707.804 464.808 708.524 464.52C709.292 464.232 709.988 463.968 710.612 463.728C711.284 463.488 711.836 463.368 712.268 463.368C713.9 463.368 714.716 464.424 714.716 466.536C714.716 467.784 714.14 468.744 712.988 469.416C711.884 470.088 710.564 470.592 709.028 470.928C707.54 471.264 706.052 471.456 704.564 471.504C703.124 471.6 702.068 471.648 701.396 471.648C699.764 471.648 698.156 471.288 696.572 470.568C694.988 469.848 693.572 468.84 692.324 467.544C691.124 466.248 690.14 464.736 689.372 463.008C688.652 461.28 688.292 459.408 688.292 457.392C688.292 454.608 688.628 452.064 689.3 449.76C690.02 447.456 691.028 445.464 692.324 443.784C693.62 442.104 695.228 440.808 697.148 439.896C699.068 438.936 701.252 438.456 703.7 438.456C704.9 438.456 706.148 438.696 707.444 439.176C708.74 439.608 709.892 440.28 710.9 441.192C711.956 442.056 712.82 443.16 713.492 444.504C714.164 445.8 714.5 447.312 714.5 449.04C714.5 450.144 714.332 451.08 713.996 451.848C713.66 452.616 713.204 453.096 712.628 453.288L692.612 460.416ZM692.324 455.448C693.668 455.064 695.18 454.56 696.86 453.936C698.588 453.264 700.316 452.592 702.044 451.92C703.772 451.2 705.38 450.528 706.868 449.904C708.404 449.232 709.652 448.704 710.612 448.32C709.988 446.976 708.932 446.04 707.444 445.512C706.004 444.936 704.444 444.648 702.764 444.648C702.092 444.648 701.228 444.864 700.172 445.296C699.116 445.68 698.036 446.304 696.932 447.168C695.876 448.032 694.916 449.16 694.052 450.552C693.188 451.896 692.612 453.528 692.324 455.448ZM721.731 467.112C721.731 466.008 721.731 465.12 721.731 464.448C721.779 463.728 721.803 463.128 721.803 462.648V460.632C721.803 460.008 721.803 459.408 721.803 458.832C721.803 458.208 721.827 457.32 721.875 456.168C721.971 455.016 722.067 453.432 722.163 451.416C722.307 449.4 722.523 446.616 722.811 443.064C722.907 442.008 723.147 441.168 723.531 440.544C723.915 439.872 724.515 439.536 725.331 439.536C725.715 439.536 726.123 439.8 726.555 440.328C726.987 440.808 727.203 441.768 727.203 443.208C727.203 443.448 727.203 443.712 727.203 444C727.203 444.24 727.179 444.528 727.131 444.864C727.467 443.76 727.995 442.824 728.715 442.056C729.483 441.288 730.323 440.664 731.235 440.184C732.147 439.704 733.083 439.368 734.043 439.176C735.003 438.936 735.891 438.816 736.707 438.816C737.331 438.816 738.051 438.888 738.867 439.032C739.731 439.128 740.523 439.368 741.243 439.752C742.011 440.088 742.635 440.616 743.115 441.336C743.643 442.008 743.907 442.92 743.907 444.072C743.907 445.128 743.715 445.992 743.331 446.664C742.947 447.336 742.395 447.672 741.675 447.672C741.099 447.672 740.715 447.552 740.523 447.312C740.379 447.024 740.187 446.712 739.947 446.376C739.755 446.04 739.443 445.752 739.011 445.512C738.579 445.224 737.811 445.08 736.707 445.08H735.987C732.531 445.08 730.107 446.04 728.715 447.96C727.323 449.832 726.627 452.64 726.627 456.384V457.608L726.987 467.76C726.987 468 726.939 468.312 726.843 468.696C726.747 469.032 726.603 469.392 726.411 469.776C726.219 470.16 725.955 470.496 725.619 470.784C725.331 471.024 724.947 471.144 724.467 471.144C723.363 471.144 722.619 470.832 722.235 470.208C721.899 469.536 721.731 468.504 721.731 467.112ZM752.769 432.192C752.433 432.192 752.049 432.144 751.617 432.048C751.185 431.952 750.777 431.784 750.393 431.544C750.009 431.256 749.673 430.896 749.385 430.464C749.145 429.984 749.025 429.36 749.025 428.592C749.025 428.064 749.121 427.536 749.313 427.008C749.553 426.48 749.841 426.024 750.177 425.64C750.513 425.208 750.873 424.872 751.257 424.632C751.689 424.344 752.097 424.2 752.481 424.2C753.249 424.2 753.993 424.464 754.713 424.992C755.481 425.52 755.865 426.552 755.865 428.088C755.865 430.824 754.833 432.192 752.769 432.192ZM748.737 468.408C748.689 468.168 748.617 467.592 748.521 466.68C748.473 465.72 748.449 464.016 748.449 461.568C748.449 460.608 748.449 459.384 748.449 457.896C748.449 456.36 748.473 454.776 748.521 453.144C748.617 451.464 748.737 449.784 748.881 448.104C749.073 446.424 749.289 444.912 749.529 443.568C749.817 442.224 750.177 441.144 750.609 440.328C751.041 439.464 751.569 439.032 752.193 439.032C752.961 439.032 753.417 439.368 753.561 440.04C753.753 440.712 753.849 441.504 753.849 442.416C753.753 444.432 753.609 446.712 753.417 449.256C753.225 451.752 753.129 454.2 753.129 456.6C753.129 458.376 753.273 460.344 753.561 462.504C753.849 464.616 753.993 466.512 753.993 468.192C753.993 469.344 753.753 470.232 753.273 470.856C752.793 471.432 752.289 471.72 751.761 471.72C750.945 471.72 750.297 471.48 749.817 471C749.337 470.52 748.977 469.656 748.737 468.408ZM764.19 460.416C764.574 461.664 765.222 462.648 766.134 463.368C767.046 464.088 768.054 464.616 769.158 464.952C770.262 465.288 771.366 465.504 772.47 465.6C773.574 465.648 774.534 465.672 775.35 465.672C776.166 465.672 776.982 465.552 777.798 465.312C778.614 465.072 779.382 464.808 780.102 464.52C780.87 464.232 781.566 463.968 782.19 463.728C782.862 463.488 783.414 463.368 783.846 463.368C785.478 463.368 786.294 464.424 786.294 466.536C786.294 467.784 785.718 468.744 784.566 469.416C783.462 470.088 782.142 470.592 780.606 470.928C779.118 471.264 777.63 471.456 776.142 471.504C774.702 471.6 773.646 471.648 772.974 471.648C771.342 471.648 769.734 471.288 768.15 470.568C766.566 469.848 765.15 468.84 763.902 467.544C762.702 466.248 761.718 464.736 760.95 463.008C760.23 461.28 759.87 459.408 759.87 457.392C759.87 454.608 760.206 452.064 760.878 449.76C761.598 447.456 762.606 445.464 763.902 443.784C765.198 442.104 766.806 440.808 768.726 439.896C770.646 438.936 772.83 438.456 775.278 438.456C776.478 438.456 777.726 438.696 779.022 439.176C780.318 439.608 781.47 440.28 782.478 441.192C783.534 442.056 784.398 443.16 785.07 444.504C785.742 445.8 786.078 447.312 786.078 449.04C786.078 450.144 785.91 451.08 785.574 451.848C785.238 452.616 784.782 453.096 784.206 453.288L764.19 460.416ZM763.902 455.448C765.246 455.064 766.758 454.56 768.438 453.936C770.166 453.264 771.894 452.592 773.622 451.92C775.35 451.2 776.958 450.528 778.446 449.904C779.982 449.232 781.23 448.704 782.19 448.32C781.566 446.976 780.51 446.04 779.022 445.512C777.582 444.936 776.022 444.648 774.342 444.648C773.67 444.648 772.806 444.864 771.75 445.296C770.694 445.68 769.614 446.304 768.51 447.168C767.454 448.032 766.494 449.16 765.63 450.552C764.766 451.896 764.19 453.528 763.902 455.448ZM794.101 465.96C794.101 465.672 794.149 465.336 794.245 464.952C794.389 464.52 794.557 464.136 794.749 463.8C794.989 463.416 795.229 463.104 795.469 462.864C795.709 462.576 795.973 462.432 796.261 462.432C796.453 462.432 796.717 462.648 797.053 463.08C797.485 463.656 797.893 464.112 798.277 464.448C798.709 464.736 799.141 464.976 799.573 465.168C800.053 465.36 800.581 465.48 801.157 465.528C801.781 465.576 802.501 465.6 803.317 465.6C804.229 465.6 805.189 465.504 806.197 465.312C807.205 465.12 808.117 464.904 808.933 464.664C809.749 464.424 810.421 464.16 810.949 463.872C811.525 463.584 811.813 463.368 811.813 463.224C811.813 462.744 811.333 462.36 810.373 462.072C809.461 461.736 808.285 461.424 806.845 461.136C805.405 460.848 803.869 460.488 802.237 460.056C800.605 459.624 799.069 459.048 797.629 458.328C796.189 457.56 794.989 456.6 794.029 455.448C793.117 454.248 792.661 452.736 792.661 450.912C792.661 448.896 793.069 447.12 793.885 445.584C794.749 444 795.853 442.68 797.197 441.624C798.541 440.52 800.029 439.704 801.661 439.176C803.293 438.6 804.901 438.312 806.485 438.312C808.741 438.312 810.541 438.936 811.885 440.184C813.229 441.432 813.901 442.872 813.901 444.504C813.901 445.08 813.877 445.704 813.829 446.376C813.829 447.048 813.757 447.696 813.613 448.32C813.469 448.896 813.253 449.4 812.965 449.832C812.677 450.216 812.245 450.408 811.669 450.408C811.141 450.408 810.805 450.144 810.661 449.616C810.517 449.088 810.445 448.416 810.445 447.6C810.445 446.496 810.013 445.752 809.149 445.368C808.333 444.984 807.181 444.792 805.693 444.792C804.877 444.792 803.965 444.96 802.957 445.296C801.997 445.584 801.085 446.016 800.221 446.592C799.357 447.12 798.613 447.744 797.989 448.464C797.413 449.136 797.125 449.832 797.125 450.552C797.125 451.416 797.581 452.064 798.493 452.496C799.453 452.88 800.653 453.216 802.093 453.504C803.533 453.792 805.069 454.104 806.701 454.44C808.333 454.728 809.869 455.184 811.309 455.808C812.749 456.432 813.925 457.296 814.837 458.4C815.797 459.504 816.277 460.992 816.277 462.864C816.277 464.544 815.749 465.984 814.693 467.184C813.637 468.336 812.365 469.272 810.877 469.992C809.437 470.712 807.925 471.216 806.341 471.504C804.805 471.84 803.557 472.008 802.597 472.008C801.877 472.008 801.037 471.936 800.077 471.792C799.117 471.696 798.181 471.432 797.269 471C796.405 470.568 795.661 469.968 795.037 469.2C794.413 468.384 794.101 467.304 794.101 465.96ZM844.027 471.144C842.779 471.144 841.963 470.496 841.579 469.2C841.243 467.904 841.075 466.248 841.075 464.232C841.075 462.6 841.123 460.68 841.219 458.472C841.363 456.264 841.507 453.96 841.651 451.56C841.843 449.16 842.011 446.76 842.155 444.36C842.299 441.912 842.395 439.656 842.443 437.592C842.203 437.064 841.939 436.584 841.651 436.152C841.411 435.672 841.291 434.952 841.291 433.992C841.291 433.56 841.363 433.128 841.507 432.696C841.699 432.264 841.939 431.856 842.227 431.472C842.515 431.088 842.803 430.776 843.091 430.536C843.427 430.296 843.739 430.176 844.027 430.176C844.171 430.176 844.411 430.248 844.747 430.392C845.083 430.488 845.419 430.68 845.755 430.968C846.091 431.256 846.379 431.64 846.619 432.12C846.859 432.552 846.979 433.08 846.979 433.704C846.931 435.816 846.835 438.072 846.691 440.472C846.547 442.824 846.403 445.296 846.259 447.888C846.115 450.432 845.995 453.024 845.899 455.664C845.803 458.304 845.755 460.92 845.755 463.512C845.851 464.232 845.923 465 845.971 465.816C846.067 466.632 846.115 467.376 846.115 468.048C846.115 468.912 845.899 469.656 845.467 470.28C845.035 470.856 844.555 471.144 844.027 471.144Z" fill="white"/>
<path d="M314.271 624.816C314.271 623.856 314.303 622.896 314.367 621.936C314.495 620.976 314.559 620.112 314.559 619.344C314.687 611.792 314.783 605.328 314.847 599.952C314.911 594.512 315.071 590.064 315.327 586.608C315.583 583.088 316.031 580.496 316.671 578.832C317.311 577.168 318.303 576.336 319.647 576.336C320.543 576.336 321.247 576.848 321.759 577.872C322.271 578.832 322.527 579.856 322.527 580.944V581.424C322.783 584.112 324.415 588.816 327.423 595.536C327.807 596.496 328.319 597.744 328.959 599.28C329.663 600.816 330.335 602.384 330.975 603.984C331.679 605.52 332.319 606.928 332.895 608.208C333.535 609.488 334.015 610.32 334.335 610.704C334.719 610.704 335.167 610.48 335.679 610.032C336.191 609.52 336.895 608.496 337.791 606.96C338.239 606.192 339.007 604.848 340.095 602.928C341.247 600.944 342.495 598.704 343.839 596.208C345.183 593.648 346.559 591.024 347.967 588.336C349.375 585.648 350.623 583.184 351.711 580.944C351.903 579.856 352.319 578.896 352.959 578.064C353.663 577.168 354.335 576.72 354.975 576.72C356.127 576.72 356.991 577.168 357.567 578.064C358.207 578.96 358.527 580.176 358.527 581.712C358.527 584.784 358.431 587.728 358.239 590.544C358.111 593.296 357.983 596.208 357.855 599.28L357.087 627.312C357.023 628.592 356.639 629.488 355.935 630C355.295 630.576 354.815 630.864 354.495 630.864C354.431 630.864 354.175 630.8 353.727 630.672C353.279 630.544 352.767 630.288 352.191 629.904C351.679 629.52 351.199 629.008 350.751 628.368C350.303 627.728 350.079 626.896 350.079 625.872C350.079 624.464 350.335 623.12 350.847 621.84C351.359 620.56 351.615 619.376 351.615 618.288L351.999 594.48C351.487 595.248 351.007 596.112 350.559 597.072C350.111 598.032 349.599 599.024 349.023 600.048L347.391 603.024C346.239 605.136 345.087 607.312 343.935 609.552C342.783 611.728 341.631 613.712 340.479 615.504C339.327 617.296 338.175 618.768 337.023 619.92C335.935 621.072 334.879 621.648 333.855 621.648C333.279 621.648 332.543 621.04 331.647 619.824C330.751 618.608 329.855 617.2 328.959 615.6C328.127 613.936 327.327 612.304 326.559 610.704C325.791 609.04 325.247 607.792 324.927 606.96L320.991 597.168C320.863 598.448 320.767 600.016 320.703 601.872C320.703 603.664 320.671 605.584 320.607 607.632C320.543 609.68 320.511 611.792 320.511 613.968C320.511 616.144 320.511 618.224 320.511 620.208C320.767 621.68 320.927 622.608 320.991 622.992C321.055 623.312 321.087 623.504 321.087 623.568C321.087 625.616 320.863 627.248 320.415 628.464C320.031 629.616 319.327 630.192 318.303 630.192C316.639 630.192 315.551 629.68 315.039 628.656C314.527 627.568 314.271 626.288 314.271 624.816ZM373.305 615.888C373.817 617.552 374.681 618.864 375.897 619.824C377.113 620.784 378.457 621.488 379.929 621.936C381.401 622.384 382.873 622.672 384.345 622.8C385.817 622.864 387.097 622.896 388.185 622.896C389.273 622.896 390.361 622.736 391.449 622.416C392.537 622.096 393.561 621.744 394.521 621.36C395.545 620.976 396.473 620.624 397.305 620.304C398.201 619.984 398.937 619.824 399.513 619.824C401.689 619.824 402.777 621.232 402.777 624.048C402.777 625.712 402.009 626.992 400.473 627.888C399.001 628.784 397.241 629.456 395.193 629.904C393.209 630.352 391.225 630.608 389.241 630.672C387.321 630.8 385.913 630.864 385.017 630.864C382.841 630.864 380.697 630.384 378.585 629.424C376.473 628.464 374.585 627.12 372.921 625.392C371.321 623.664 370.009 621.648 368.985 619.344C368.025 617.04 367.545 614.544 367.545 611.856C367.545 608.144 367.993 604.752 368.889 601.68C369.849 598.608 371.193 595.952 372.921 593.712C374.649 591.472 376.793 589.744 379.353 588.528C381.913 587.248 384.825 586.608 388.089 586.608C389.689 586.608 391.353 586.928 393.081 587.568C394.809 588.144 396.345 589.04 397.689 590.256C399.097 591.408 400.249 592.88 401.145 594.672C402.041 596.4 402.489 598.416 402.489 600.72C402.489 602.192 402.265 603.44 401.817 604.464C401.369 605.488 400.761 606.128 399.993 606.384L373.305 615.888ZM372.921 609.264C374.713 608.752 376.729 608.08 378.969 607.248C381.273 606.352 383.577 605.456 385.881 604.56C388.185 603.6 390.329 602.704 392.313 601.872C394.361 600.976 396.025 600.272 397.305 599.76C396.473 597.968 395.065 596.72 393.081 596.016C391.161 595.248 389.081 594.864 386.841 594.864C385.945 594.864 384.793 595.152 383.385 595.728C381.977 596.24 380.537 597.072 379.065 598.224C377.657 599.376 376.377 600.88 375.225 602.736C374.073 604.528 373.305 606.704 372.921 609.264ZM428.451 630.48C426.147 630.48 424.291 629.936 422.883 628.848C421.475 627.696 420.387 626.192 419.619 624.336C418.851 622.48 418.307 620.368 417.987 618C417.731 615.632 417.571 613.2 417.507 610.704C417.443 608.144 417.379 605.648 417.315 603.216C417.315 600.784 417.219 598.576 417.027 596.592C416.323 596.592 415.587 596.624 414.819 596.688C414.051 596.752 413.219 596.784 412.323 596.784C412.067 596.784 411.715 596.688 411.267 596.496C410.883 596.304 410.467 596.048 410.019 595.728C409.635 595.344 409.283 594.896 408.963 594.384C408.707 593.872 408.579 593.264 408.579 592.56C408.579 591.28 408.963 590.192 409.73 589.296C410.499 588.4 411.363 587.952 412.323 587.952C413.155 587.952 413.987 587.984 414.819 588.048C415.651 588.048 416.547 588.08 417.507 588.144C417.507 587.312 417.539 586.032 417.603 584.304C417.731 582.576 417.923 580.88 418.179 579.216C418.499 577.552 418.947 576.08 419.523 574.8C420.099 573.52 420.867 572.88 421.827 572.88C422.339 572.88 422.883 573.264 423.459 574.032C424.099 574.736 424.419 575.696 424.419 576.912C424.419 579.792 424.323 581.936 424.131 583.344C424.003 584.752 423.875 585.808 423.747 586.512L423.459 588.24C425.763 588.24 428.067 588.208 430.371 588.144C432.739 588.08 435.107 588.048 437.475 588.048C437.923 588.048 438.307 588.208 438.627 588.528C438.947 588.848 439.203 589.264 439.395 589.776C439.587 590.224 439.715 590.736 439.779 591.312C439.907 591.824 439.971 592.304 439.971 592.752C439.971 594.096 439.619 595.12 438.915 595.824C438.275 596.464 437.635 596.784 436.995 596.784L423.363 596.592C423.363 597.168 423.331 597.936 423.267 598.896C423.267 599.792 423.267 600.784 423.267 601.872C423.267 602.96 423.235 604.112 423.171 605.328C423.171 606.48 423.171 607.6 423.171 608.688C423.171 610.416 423.235 612.08 423.363 613.68C423.491 615.216 423.715 616.592 424.035 617.808C424.419 619.024 424.931 620.016 425.571 620.784C426.211 621.488 427.075 621.84 428.163 621.84C428.931 621.84 429.699 621.68 430.467 621.36C431.299 621.04 432.035 620.688 432.675 620.304C433.379 619.856 433.955 619.472 434.403 619.152C434.851 618.832 435.139 618.672 435.267 618.672C436.035 618.672 436.547 618.928 436.803 619.44C437.059 619.888 437.187 620.56 437.187 621.456C437.187 622.416 436.867 623.44 436.227 624.528C435.651 625.552 434.915 626.512 434.019 627.408C433.123 628.304 432.163 629.04 431.139 629.616C430.115 630.192 429.219 630.48 428.451 630.48ZM444.016 613.488C444.016 610.352 444.56 607.248 445.648 604.176C446.736 601.04 448.24 598.256 450.16 595.824C452.08 593.328 454.288 591.344 456.784 589.872C459.344 588.336 462.064 587.568 464.944 587.568C467.12 587.568 469.168 588.08 471.088 589.104C473.072 590.128 474.768 591.472 476.176 593.136C477.584 594.736 478.704 596.592 479.536 598.704C480.368 600.752 480.784 602.8 480.784 604.848C480.784 605.936 480.72 606.992 480.592 608.016C480.464 608.976 480.304 609.968 480.112 610.992C479.984 611.952 479.856 612.976 479.728 614.064C479.6 615.152 479.536 616.368 479.536 617.712C479.536 619.504 479.792 620.752 480.304 621.456C480.816 622.16 481.552 622.512 482.512 622.512C483.088 622.512 483.632 622.192 484.144 621.552C484.72 620.912 485.232 620.528 485.68 620.4C487.344 620.4 488.176 621.616 488.176 624.048C488.176 624.816 488.016 625.584 487.696 626.352C487.376 627.12 486.928 627.824 486.352 628.464C485.776 629.04 485.104 629.552 484.336 630C483.568 630.384 482.736 630.576 481.84 630.576C480.944 630.576 480.048 630.32 479.152 629.808C478.32 629.296 477.552 628.656 476.848 627.888C476.144 627.056 475.568 626.128 475.12 625.104C474.672 624.016 474.448 622.896 474.448 621.744C472.528 624.176 470.352 626.32 467.92 628.176C465.552 630.032 462.928 630.96 460.048 630.96C458.192 630.96 456.304 630.512 454.384 629.616C452.528 628.72 450.832 627.504 449.296 625.968C447.76 624.368 446.48 622.512 445.456 620.4C444.496 618.224 444.016 615.92 444.016 613.488ZM449.968 613.2C449.968 614.608 450.288 615.888 450.928 617.04C451.632 618.192 452.528 619.184 453.616 620.016C454.768 620.784 456.016 621.392 457.36 621.84C458.768 622.288 460.144 622.512 461.488 622.512C464.304 622.512 466.544 621.904 468.208 620.688C469.872 619.408 471.184 617.84 472.144 615.984C473.104 614.064 473.776 612.016 474.16 609.84C474.544 607.6 474.896 605.488 475.216 603.504C475.216 602.8 474.864 602.032 474.16 601.2C473.52 600.304 472.72 599.504 471.76 598.8C470.8 598.032 469.744 597.392 468.592 596.88C467.504 596.368 466.512 596.112 465.616 596.112C463.248 596.112 461.104 596.624 459.184 597.648C457.264 598.672 455.6 600.016 454.192 601.68C452.848 603.28 451.792 605.104 451.024 607.152C450.32 609.2 449.968 611.216 449.968 613.2ZM526.218 624.048C526.218 623.664 526.218 623.248 526.218 622.8C526.282 622.352 526.314 621.904 526.314 621.456L525.066 585.168C523.338 585.296 521.674 585.488 520.074 585.744C518.474 586 516.97 586.128 515.562 586.128C514.154 586.128 513.098 585.872 512.394 585.36C511.754 584.848 511.434 583.952 511.434 582.672C511.434 580.176 511.978 578.544 513.066 577.776C514.218 576.944 515.434 576.528 516.714 576.528L535.338 576.336L542.346 575.856C543.434 575.856 544.298 576.304 544.938 577.2C545.578 578.096 545.898 579.184 545.898 580.464C545.898 580.912 545.77 581.456 545.514 582.096C545.322 582.736 545.066 583.344 544.746 583.92C544.426 584.496 544.042 585.008 543.594 585.456C543.146 585.84 542.698 586.032 542.25 586.032C541.61 586.032 540.906 585.712 540.138 585.072C539.434 584.432 538.73 584.112 538.026 584.112C537.834 584.112 537.482 584.112 536.97 584.112C536.458 584.112 535.882 584.144 535.242 584.208C534.602 584.208 533.93 584.24 533.226 584.304C532.522 584.304 531.914 584.336 531.402 584.4C531.594 590.416 531.754 595.504 531.882 599.664C532.074 603.824 532.202 607.28 532.266 610.032C532.394 612.72 532.458 614.832 532.458 616.368C532.522 617.84 532.554 618.928 532.554 619.632C532.618 620.336 532.65 620.784 532.65 620.976C532.65 621.104 532.65 621.2 532.65 621.264L533.418 626.448C533.354 627.984 533.162 629.072 532.842 629.712C532.522 630.288 531.658 630.576 530.25 630.576C528.458 630.576 527.338 630 526.89 628.848C526.442 627.696 526.218 626.096 526.218 624.048ZM549.391 613.488C549.391 610.352 549.935 607.248 551.023 604.176C552.111 601.04 553.615 598.256 555.535 595.824C557.455 593.328 559.663 591.344 562.159 589.872C564.719 588.336 567.439 587.568 570.319 587.568C572.495 587.568 574.543 588.08 576.463 589.104C578.447 590.128 580.143 591.472 581.551 593.136C582.959 594.736 584.079 596.592 584.911 598.704C585.743 600.752 586.159 602.8 586.159 604.848C586.159 605.936 586.095 606.992 585.967 608.016C585.839 608.976 585.679 609.968 585.487 610.992C585.359 611.952 585.231 612.976 585.103 614.064C584.975 615.152 584.911 616.368 584.911 617.712C584.911 619.504 585.167 620.752 585.679 621.456C586.191 622.16 586.927 622.512 587.887 622.512C588.463 622.512 589.007 622.192 589.519 621.552C590.095 620.912 590.607 620.528 591.055 620.4C592.719 620.4 593.551 621.616 593.551 624.048C593.551 624.816 593.391 625.584 593.071 626.352C592.751 627.12 592.303 627.824 591.727 628.464C591.151 629.04 590.479 629.552 589.711 630C588.943 630.384 588.111 630.576 587.215 630.576C586.319 630.576 585.423 630.32 584.527 629.808C583.695 629.296 582.927 628.656 582.223 627.888C581.519 627.056 580.943 626.128 580.495 625.104C580.047 624.016 579.823 622.896 579.823 621.744C577.903 624.176 575.727 626.32 573.295 628.176C570.927 630.032 568.303 630.96 565.423 630.96C563.567 630.96 561.679 630.512 559.759 629.616C557.903 628.72 556.207 627.504 554.671 625.968C553.135 624.368 551.855 622.512 550.831 620.4C549.871 618.224 549.391 615.92 549.391 613.488ZM555.343 613.2C555.343 614.608 555.663 615.888 556.303 617.04C557.007 618.192 557.903 619.184 558.991 620.016C560.143 620.784 561.391 621.392 562.735 621.84C564.143 622.288 565.519 622.512 566.863 622.512C569.679 622.512 571.919 621.904 573.583 620.688C575.247 619.408 576.559 617.84 577.519 615.984C578.479 614.064 579.151 612.016 579.535 609.84C579.919 607.6 580.271 605.488 580.591 603.504C580.591 602.8 580.239 602.032 579.535 601.2C578.895 600.304 578.095 599.504 577.135 598.8C576.175 598.032 575.119 597.392 573.967 596.88C572.879 596.368 571.887 596.112 570.991 596.112C568.623 596.112 566.479 596.624 564.559 597.648C562.639 598.672 560.975 600.016 559.567 601.68C558.223 603.28 557.167 605.104 556.399 607.152C555.695 609.2 555.343 611.216 555.343 613.2ZM595.639 611.664C595.639 608.656 595.959 605.744 596.599 602.928C597.303 600.048 598.327 597.488 599.671 595.248C601.015 593.008 602.743 591.216 604.855 589.872C606.967 588.528 609.463 587.856 612.343 587.856C614.647 587.856 616.855 588.432 618.967 589.584C621.079 590.736 622.935 592.208 624.535 594C626.199 595.792 627.511 597.744 628.471 599.856C629.495 601.968 630.007 603.984 630.007 605.904L629.143 626.736C629.143 626.864 629.111 626.96 629.047 627.024C629.047 627.088 629.047 627.184 629.047 627.312C628.663 629.744 628.343 632.336 628.087 635.088C627.831 637.904 627.351 640.496 626.647 642.864C625.943 645.296 624.855 647.312 623.383 648.912C621.911 650.512 619.735 651.312 616.855 651.312C616.279 651.312 615.351 651.216 614.071 651.024C612.791 650.832 611.511 650.48 610.231 649.968C608.951 649.52 607.799 648.88 606.775 648.048C605.815 647.28 605.335 646.256 605.335 644.976C605.335 643.632 605.495 642.512 605.815 641.616C606.199 640.784 606.967 640.368 608.119 640.368C608.567 640.368 608.919 640.464 609.175 640.656C609.431 640.912 609.815 641.168 610.327 641.424C610.903 641.68 611.703 641.904 612.727 642.096C613.815 642.352 615.383 642.48 617.431 642.48C618.839 642.48 619.863 641.84 620.503 640.56C621.207 639.344 621.719 637.808 622.039 635.952C622.359 634.16 622.583 632.208 622.711 630.096C622.839 627.984 622.999 626.064 623.191 624.336C622.871 625.424 622.295 626.384 621.463 627.216C620.631 627.984 619.671 628.656 618.583 629.232C617.495 629.808 616.343 630.224 615.127 630.48C613.975 630.8 612.887 630.96 611.863 630.96C606.551 630.96 602.519 629.36 599.767 626.16C597.015 622.96 595.639 618.128 595.639 611.664ZM601.783 611.088C601.783 613.392 602.039 615.312 602.551 616.848C603.127 618.32 603.895 619.504 604.855 620.4C605.879 621.296 607.063 621.936 608.407 622.32C609.751 622.64 611.223 622.8 612.823 622.8C614.295 622.8 615.639 622.384 616.855 621.552C618.071 620.72 619.127 619.696 620.023 618.48C620.983 617.2 621.783 615.824 622.423 614.352C623.063 612.88 623.543 611.504 623.863 610.224C623.671 608.688 623.383 607.12 622.999 605.52C622.679 603.856 622.135 602.352 621.367 601.008C620.599 599.664 619.575 598.544 618.295 597.648C617.015 596.752 615.383 596.304 613.399 596.304C611.223 596.304 609.399 596.72 607.927 597.552C606.455 598.32 605.271 599.408 604.375 600.816C603.479 602.16 602.807 603.728 602.359 605.52C601.975 607.312 601.783 609.168 601.783 611.088ZM641.093 623.28C641.093 622.896 641.157 622.448 641.285 621.936C641.477 621.36 641.701 620.848 641.957 620.4C642.277 619.888 642.597 619.472 642.917 619.152C643.237 618.768 643.589 618.576 643.973 618.576C644.229 618.576 644.581 618.864 645.029 619.44C645.605 620.208 646.149 620.816 646.661 621.264C647.237 621.648 647.813 621.968 648.389 622.224C649.029 622.48 649.733 622.64 650.501 622.704C651.333 622.768 652.293 622.8 653.381 622.8C654.597 622.8 655.877 622.672 657.221 622.416C658.565 622.16 659.781 621.872 660.869 621.552C661.957 621.232 662.853 620.88 663.557 620.496C664.325 620.112 664.709 619.824 664.709 619.632C664.709 618.992 664.069 618.48 662.789 618.096C661.573 617.648 660.005 617.232 658.085 616.848C656.165 616.464 654.117 615.984 651.941 615.408C649.765 614.832 647.717 614.064 645.797 613.104C643.877 612.08 642.277 610.8 640.997 609.264C639.781 607.664 639.173 605.648 639.173 603.216C639.173 600.528 639.717 598.16 640.805 596.112C641.957 594 643.429 592.24 645.221 590.832C647.013 589.36 648.997 588.272 651.173 587.568C653.349 586.8 655.493 586.416 657.605 586.416C660.613 586.416 663.013 587.248 664.805 588.912C666.597 590.576 667.493 592.496 667.493 594.672C667.493 595.44 667.461 596.272 667.397 597.168C667.397 598.064 667.301 598.928 667.109 599.76C666.917 600.528 666.629 601.2 666.245 601.776C665.861 602.288 665.285 602.544 664.517 602.544C663.813 602.544 663.365 602.192 663.173 601.488C662.981 600.784 662.885 599.888 662.885 598.8C662.885 597.328 662.309 596.336 661.157 595.824C660.069 595.312 658.533 595.056 656.549 595.056C655.461 595.056 654.245 595.28 652.901 595.728C651.621 596.112 650.405 596.688 649.253 597.456C648.101 598.16 647.109 598.992 646.277 599.952C645.509 600.848 645.125 601.776 645.125 602.736C645.125 603.888 645.733 604.752 646.949 605.328C648.229 605.84 649.829 606.288 651.749 606.672C653.669 607.056 655.717 607.472 657.893 607.92C660.069 608.304 662.117 608.912 664.037 609.744C665.957 610.576 667.525 611.728 668.741 613.2C670.021 614.672 670.661 616.656 670.661 619.152C670.661 621.392 669.957 623.312 668.549 624.912C667.141 626.448 665.445 627.696 663.461 628.656C661.541 629.616 659.525 630.288 657.413 630.672C655.365 631.12 653.701 631.344 652.421 631.344C651.461 631.344 650.341 631.248 649.061 631.056C647.781 630.928 646.533 630.576 645.317 630C644.165 629.424 643.173 628.624 642.341 627.6C641.509 626.512 641.093 625.072 641.093 623.28ZM706.989 620.4C706.989 617.136 707.021 613.904 707.085 610.704C707.213 607.44 707.309 604.016 707.373 600.432V598.224C706.349 598.288 705.325 598.352 704.301 598.416C703.341 598.416 702.349 598.416 701.325 598.416C700.493 598.416 699.789 597.968 699.213 597.072C698.701 596.176 698.445 595.184 698.445 594.096C698.445 593.072 698.733 592.112 699.309 591.216C699.949 590.256 700.653 589.776 701.421 589.776L707.661 589.968H708.045C708.429 586.768 708.973 583.6 709.677 580.464C710.381 577.328 711.341 574.544 712.557 572.112C713.773 569.616 715.245 567.6 716.973 566.064C718.701 564.528 720.749 563.76 723.117 563.76C723.693 563.76 724.493 563.92 725.517 564.24C726.605 564.56 727.629 565.04 728.589 565.68C729.613 566.256 730.509 566.992 731.277 567.888C732.045 568.72 732.429 569.648 732.429 570.672C732.429 570.992 732.397 571.408 732.333 571.92C732.333 572.368 732.269 572.816 732.141 573.264C732.013 573.712 731.821 574.096 731.565 574.416C731.373 574.736 731.085 574.896 730.701 574.896C729.997 574.896 729.357 574.768 728.781 574.512C728.205 574.192 727.629 573.872 727.053 573.552C726.477 573.232 725.869 572.944 725.229 572.688C724.589 572.368 723.885 572.208 723.117 572.208C721.389 572.208 719.949 572.784 718.797 573.936C717.709 575.088 716.813 576.528 716.109 578.256C715.469 579.984 714.957 581.904 714.573 584.016C714.253 586.064 714.061 588.048 713.997 589.968H724.461C724.845 589.904 725.261 589.872 725.709 589.872C726.157 589.808 726.573 589.776 726.957 589.776C727.597 589.776 728.205 590.032 728.781 590.544C729.357 591.056 729.645 592.144 729.645 593.808C729.645 594.96 729.485 595.856 729.165 596.496C728.909 597.072 728.557 597.52 728.109 597.84C727.725 598.096 727.277 598.256 726.765 598.32C726.317 598.384 725.933 598.416 725.613 598.416C724.077 598.352 722.765 598.288 721.677 598.224C720.589 598.16 719.629 598.096 718.797 598.032C718.029 597.968 717.325 597.936 716.685 597.936C716.109 597.936 715.501 597.936 714.861 597.936H713.901C713.837 600.944 713.741 603.952 713.613 606.96C713.485 609.904 713.389 613.104 713.325 616.56C713.325 617.264 713.485 618.576 713.805 620.496C714.125 622.416 714.285 624.496 714.285 626.736C714.285 628.08 714.061 629.04 713.613 629.616C713.165 630.192 712.589 630.48 711.885 630.48C710.861 630.48 710.029 630.352 709.389 630.096C708.749 629.904 708.237 629.456 707.853 628.752C707.533 627.984 707.309 626.96 707.181 625.68C707.053 624.336 706.989 622.576 706.989 620.4ZM733.923 609.648C733.923 605.616 734.467 602.192 735.555 599.376C736.643 596.56 738.083 594.288 739.875 592.56C741.667 590.768 743.683 589.488 745.923 588.72C748.163 587.888 750.435 587.472 752.739 587.472C758.051 587.472 762.179 589.488 765.123 593.52C768.067 597.488 769.539 602.864 769.539 609.648C769.539 612.848 769.027 615.76 768.003 618.384C766.979 620.944 765.635 623.184 763.971 625.104C762.307 626.96 760.387 628.4 758.211 629.424C756.099 630.448 753.923 630.96 751.683 630.96C749.251 630.96 746.947 630.32 744.771 629.04C742.659 627.696 740.771 626 739.107 623.952C737.507 621.904 736.227 619.632 735.267 617.136C734.371 614.576 733.923 612.08 733.923 609.648ZM751.203 622.8C752.803 622.8 754.339 622.512 755.811 621.936C757.347 621.296 758.691 620.4 759.843 619.248C761.059 618.096 762.019 616.688 762.723 615.024C763.427 613.36 763.779 611.44 763.779 609.264C763.779 607.28 763.523 605.456 763.011 603.792C762.499 602.128 761.795 600.72 760.899 599.568C760.003 598.352 758.947 597.424 757.731 596.784C756.515 596.144 755.203 595.824 753.795 595.824C752.131 595.824 750.435 596.112 748.707 596.688C747.043 597.2 745.539 598 744.195 599.088C742.851 600.112 741.731 601.456 740.835 603.12C740.003 604.72 739.587 606.576 739.587 608.688C739.587 610.416 739.907 612.144 740.547 613.872C741.187 615.536 742.051 617.04 743.139 618.384C744.227 619.728 745.475 620.816 746.883 621.648C748.291 622.416 749.731 622.8 751.203 622.8ZM778.881 624.816C778.881 623.344 778.881 622.16 778.881 621.264C778.945 620.304 778.977 619.504 778.977 618.864V616.176C778.977 615.344 778.977 614.544 778.977 613.776C778.977 612.944 779.009 611.76 779.073 610.224C779.201 608.688 779.329 606.576 779.457 603.888C779.649 601.2 779.937 597.488 780.321 592.752C780.449 591.344 780.769 590.224 781.281 589.392C781.793 588.496 782.593 588.048 783.681 588.048C784.193 588.048 784.737 588.4 785.312 589.104C785.889 589.744 786.177 591.024 786.177 592.944C786.177 593.264 786.177 593.616 786.177 594C786.177 594.32 786.145 594.704 786.081 595.152C786.529 593.68 787.233 592.432 788.193 591.408C789.217 590.384 790.337 589.552 791.553 588.912C792.769 588.272 794.017 587.824 795.297 587.568C796.577 587.248 797.761 587.088 798.849 587.088C799.681 587.088 800.641 587.184 801.729 587.376C802.881 587.504 803.937 587.824 804.897 588.336C805.921 588.784 806.753 589.488 807.393 590.448C808.097 591.344 808.449 592.56 808.449 594.096C808.449 595.504 808.193 596.656 807.681 597.552C807.169 598.448 806.433 598.896 805.473 598.896C804.705 598.896 804.193 598.736 803.937 598.416C803.745 598.032 803.489 597.616 803.169 597.168C802.913 596.72 802.497 596.336 801.921 596.016C801.345 595.632 800.321 595.44 798.849 595.44H797.889C793.281 595.44 790.049 596.72 788.193 599.28C786.337 601.776 785.409 605.52 785.409 610.512V612.144L785.889 625.68C785.889 626 785.825 626.416 785.697 626.928C785.569 627.376 785.377 627.856 785.121 628.368C784.865 628.88 784.513 629.328 784.065 629.712C783.681 630.032 783.169 630.192 782.529 630.192C781.057 630.192 780.065 629.776 779.553 628.944C779.105 628.048 778.881 626.672 778.881 624.816ZM837.787 621.072C837.787 620.688 837.851 620.176 837.979 619.536C838.171 618.832 838.395 618.16 838.651 617.52C838.907 616.88 839.227 616.336 839.611 615.888C839.995 615.376 840.379 615.12 840.763 615.12C840.955 615.12 841.307 615.632 841.819 616.656C842.459 618 843.067 619.024 843.643 619.728C844.219 620.432 844.795 620.976 845.371 621.36C846.011 621.68 846.715 621.872 847.483 621.936C848.315 622 849.275 622.032 850.363 622.032C851.707 622.032 853.083 621.84 854.491 621.456C855.899 621.008 857.179 620.464 858.331 619.824C859.483 619.12 860.443 618.384 861.211 617.616C861.979 616.784 862.363 616.016 862.363 615.312C862.363 614.096 861.691 613.168 860.347 612.528C859.067 611.888 857.435 611.312 855.451 610.8C853.531 610.288 851.419 609.744 849.115 609.168C846.811 608.592 844.667 607.824 842.683 606.864C840.763 605.84 839.131 604.496 837.787 602.832C836.507 601.168 835.867 598.96 835.867 596.208C835.867 593.072 836.443 590.256 837.595 587.76C838.811 585.264 840.315 583.184 842.107 581.52C843.963 579.856 846.011 578.576 848.251 577.68C850.555 576.784 852.827 576.336 855.067 576.336C856.603 576.336 857.979 576.624 859.195 577.2C860.411 577.712 861.467 578.448 862.363 579.408C863.259 580.304 863.931 581.36 864.379 582.576C864.891 583.792 865.147 585.04 865.147 586.32C865.147 587.152 865.115 588.048 865.051 589.008C864.987 589.904 864.859 590.736 864.667 591.504C864.475 592.272 864.155 592.912 863.707 593.424C863.323 593.936 862.779 594.192 862.075 594.192C861.179 594.192 860.635 593.776 860.443 592.944C860.315 592.112 860.251 591.152 860.251 590.064C860.251 588.016 859.675 586.64 858.523 585.936C857.371 585.168 855.835 584.784 853.915 584.784C852.827 584.784 851.579 585.072 850.171 585.648C848.827 586.224 847.515 587.024 846.235 588.048C845.019 589.008 843.963 590.128 843.067 591.408C842.235 592.688 841.819 594 841.819 595.344C841.819 596.752 842.459 597.84 843.739 598.608C845.083 599.312 846.747 599.92 848.731 600.432C850.715 600.88 852.827 601.36 855.067 601.872C857.371 602.32 859.515 603.056 861.499 604.08C863.483 605.04 865.115 606.352 866.395 608.016C867.739 609.68 868.411 611.952 868.411 614.832C868.411 617.712 867.643 620.176 866.107 622.224C864.635 624.208 862.875 625.84 860.827 627.12C858.779 628.336 856.667 629.232 854.491 629.808C852.379 630.32 850.683 630.576 849.403 630.576C848.443 630.576 847.291 630.48 845.947 630.288C844.603 630.096 843.323 629.68 842.107 629.04C840.955 628.4 839.931 627.44 839.035 626.16C838.203 624.88 837.787 623.184 837.787 621.072ZM880.45 605.328C880.45 604.816 880.354 604.304 880.162 603.792C880.034 603.28 879.97 602.704 879.97 602.064C879.97 601.808 880.002 601.456 880.066 601.008C880.194 600.56 880.354 600.08 880.546 599.568C880.482 598.288 880.418 596.176 880.354 593.232C880.354 590.288 880.354 587.12 880.354 583.728C880.354 582.896 880.354 582.032 880.354 581.136C880.418 580.176 880.546 579.312 880.738 578.544C880.994 577.776 881.346 577.136 881.794 576.624C882.242 576.112 882.914 575.856 883.81 575.856C884.77 575.856 885.666 575.984 886.498 576.24C887.394 576.496 888.354 576.624 889.378 576.624C890.786 576.624 892.418 576.624 894.274 576.624C896.13 576.56 898.018 576.528 899.938 576.528C901.922 576.528 903.842 576.528 905.698 576.528C907.554 576.464 909.186 576.432 910.594 576.432C912.514 576.432 913.826 576.624 914.53 577.008C915.298 577.392 915.682 578.512 915.682 580.368C915.682 581.456 915.394 582.544 914.818 583.632C914.242 584.656 913.538 585.168 912.706 585.168C908.418 585.168 904.738 585.168 901.666 585.168C898.658 585.104 896.098 585.072 893.986 585.072C891.938 585.008 890.306 584.976 889.09 584.976C887.874 584.912 886.914 584.88 886.21 584.88C886.21 585.584 886.178 586.512 886.114 587.664C886.114 588.816 886.114 590.032 886.114 591.312C886.114 592.528 886.082 593.712 886.018 594.864C886.018 596.016 886.018 596.976 886.018 597.744L902.53 597.552C903.426 597.552 904.194 597.904 904.834 598.608C905.474 599.248 905.794 600.368 905.794 601.968C905.794 602.224 905.73 602.608 905.602 603.12C905.538 603.568 905.378 604.048 905.122 604.56C904.93 605.008 904.642 605.424 904.258 605.808C903.874 606.128 903.426 606.288 902.914 606.288C900.482 606.288 898.402 606.288 896.674 606.288C894.946 606.288 893.474 606.288 892.258 606.288C891.106 606.224 890.146 606.192 889.378 606.192C888.674 606.192 888.098 606.192 887.65 606.192C886.818 606.192 886.306 606.224 886.114 606.288L886.402 620.496C890.242 620.496 894.146 620.624 898.114 620.88C902.082 621.072 906.178 621.168 910.402 621.168C911.682 621.168 912.482 621.712 912.802 622.8C913.186 623.888 913.378 625.072 913.378 626.352C913.378 628.144 912.898 629.36 911.938 630C910.978 630.64 909.89 630.96 908.674 630.96C907.458 630.96 906.37 630.896 905.41 630.768C904.45 630.704 903.426 630.608 902.338 630.48C901.25 630.416 899.938 630.32 898.402 630.192C896.866 630.128 894.914 630.096 892.546 630.096C891.202 630.096 889.826 630.16 888.418 630.288C887.01 630.48 885.506 630.576 883.906 630.576C882.818 630.576 881.89 630.064 881.122 629.04C880.418 627.952 880.098 626.576 880.162 624.912L880.45 605.328ZM921.548 603.984C921.612 598.928 922.316 594.64 923.66 591.12C925.068 587.6 926.892 584.752 929.132 582.576C931.436 580.336 933.996 578.704 936.812 577.68C939.692 576.656 942.604 576.144 945.548 576.144C952.332 576.144 957.58 578.576 961.292 583.44C965.004 588.304 966.86 595.024 966.86 603.6C966.86 607.632 966.22 611.344 964.94 614.736C963.66 618.064 961.964 620.944 959.852 623.376C957.74 625.744 955.308 627.6 952.556 628.944C949.868 630.288 947.052 630.96 944.108 630.96C941.036 630.96 938.124 630.16 935.372 628.56C932.684 626.896 930.316 624.784 928.268 622.224C926.22 619.6 924.588 616.688 923.372 613.488C922.156 610.288 921.548 607.12 921.548 603.984ZM943.724 622.512C945.964 622.512 948.108 622.128 950.156 621.36C952.268 620.528 954.124 619.344 955.724 617.808C957.324 616.208 958.604 614.256 959.564 611.952C960.524 609.648 961.004 606.96 961.004 603.888C961.004 600.88 960.62 598.192 959.852 595.824C959.148 593.392 958.124 591.344 956.78 589.68C955.5 587.952 953.932 586.64 952.076 585.744C950.284 584.848 948.332 584.4 946.22 584.4C943.852 584.4 941.548 584.784 939.308 585.552C937.068 586.256 935.052 587.376 933.26 588.912C931.532 590.448 930.124 592.368 929.036 594.672C928.012 596.976 927.5 599.664 927.5 602.736C927.5 605.104 927.948 607.472 928.844 609.84C929.74 612.208 930.924 614.32 932.396 616.176C933.932 618.032 935.66 619.568 937.58 620.784C939.564 621.936 941.612 622.512 943.724 622.512Z" fill="white"/>
</g>
<defs>
<clipPath id="clip0_1_2">
<rect width="1280" height="854" fill="white"/>
</clipPath>
<clipPath id="clip1_1_2">
<rect width="746.5" height="195.5" fill="white" transform="translate(267 174)"/>
</clipPath>
</defs>
</svg>
