<svg width="1280" height="854" viewBox="0 0 1280 854" fill="none" xmlns="http://www.w3.org/2000/svg">
<rect width="1280" height="854" fill="#F1F1F1"/>
<path d="M587.933 307.462C601.836 281.172 634.411 271.127 660.705 285.028C686.998 298.928 697.031 331.501 683.141 357.793C682.531 358.946 681.881 360.077 681.194 361.185L573.501 547.663C558.976 573.61 526.162 582.873 500.213 568.349C474.264 553.825 465 521.014 479.526 495.067C479.764 494.643 480.002 494.233 480.241 493.822L587.933 307.462Z" fill="#FBBC04"/>
<path d="M705.014 403.971C718.916 377.681 751.492 367.635 777.785 381.536C804.079 395.437 814.111 428.01 800.222 454.302C799.611 455.454 798.962 456.586 798.274 457.694L746.499 547.387C731.973 573.334 699.159 582.597 673.211 568.073C647.262 553.549 637.998 520.738 652.523 494.791C652.761 494.367 653 493.956 653.239 493.545L705.014 403.971Z" fill="#4285F4"/>
<path d="M526.503 574.929C556.241 574.929 580.349 550.824 580.349 521.088C580.349 491.352 556.241 467.246 526.503 467.246C496.764 467.246 472.656 491.352 472.656 521.088C472.656 550.824 496.764 574.929 526.503 574.929Z" fill="#34A853"/>
</svg>
